# xmcd CD database file
#
# Track frame offsets:
#	150
#	19762
#	36295
#	55987
#	77836
#	99046
#	119841
#	138054
#	157851
#	173883
#	188892
#	204840
#	222672
#	238327
#
# Disc length: 3352 seconds
#
# Revision: 1
# Processed by: cddbd v1.5.2PL0 Copyright (c) Steve Scherf et al.
# Submitted via: CDex 1.70beta2
#
DISCID=be0d160e
DTITLE=LILY  CHEN - 1.825m
DYEAR=2007
DGENRE=Ballad
TTITLE0=Sequel Song Of Love愛的見證
TTITLE1=Zero Hour Ten Mins零時十分
TTITLE2=1.825 Metres一米八二五
TTITLE3=Singaing For You
TTITLE4=Yor Sweater你的毛衣
TTITLE5=Only I Am Valuable我獨矜貴 
TTITLE6=Cresent Moon上弦月 
TTITLE7=Coward膽小鬼 
TTITLE8=Whisper At Midnight夜半輕私語 
TTITLE9=Good Friend好朋友
TTITLE10=Fairy Tale童話 
TTITLE11=Cherish Myself珍惜自己 
TTITLE12=Love Is Everywhere無處不在
TTITLE13=The Girl With Flapping Wings
EXTD=YEAR: 2007
EXTT0=
EXTT1=
EXTT2=
EXTT3=
EXTT4=
EXTT5=
EXTT6=
EXTT7=
EXTT8=
EXTT9=
EXTT10=
EXTT11=
EXTT12=
EXTT13=
PLAYORDER=
